<svg width="132" height="20" viewBox="0 0 132 20" fill="none" xmlns="http://www.w3.org/2000/svg">
<path d="M8.64746 5.00586L5.39355 12.252C5.111 12.89 4.82389 13.4232 4.53223 13.8516C4.24056 14.2799 3.89421 14.6012 3.49316 14.8154C3.09212 15.0296 2.58398 15.1367 1.96875 15.1367C1.70443 15.1367 1.45833 15.1162 1.23047 15.0752C1.00716 15.0387 0.806641 14.9909 0.628906 14.9316V13.7764C0.811198 13.863 1.00716 13.9313 1.2168 13.9814C1.43099 14.027 1.65658 14.0498 1.89355 14.0498C2.24447 14.0498 2.54525 13.9974 2.7959 13.8926C3.04655 13.7832 3.26758 13.6123 3.45898 13.3799C3.65039 13.1429 3.83268 12.8307 4.00586 12.4434L0.150391 5.00586H1.42188L4.26562 10.5908C4.30208 10.6592 4.34082 10.7389 4.38184 10.8301C4.42285 10.9167 4.46387 11.0078 4.50488 11.1035C4.5459 11.1947 4.58236 11.2858 4.61426 11.377H4.66211C4.68945 11.3086 4.71908 11.2288 4.75098 11.1377C4.78743 11.0465 4.82389 10.9554 4.86035 10.8643C4.89681 10.7731 4.92871 10.6956 4.95605 10.6318L7.41016 5.00586H8.64746ZM12.3383 7.37109C12.8989 7.37109 13.3842 7.44857 13.7944 7.60352C14.2045 7.75391 14.5213 7.97493 14.7446 8.2666C14.9679 8.55827 15.0795 8.91374 15.0795 9.33301C15.0795 9.78418 14.9565 10.1442 14.7104 10.4131C14.4643 10.682 14.1248 10.8757 13.6918 10.9941V11.0488C13.9972 11.1309 14.2729 11.2493 14.519 11.4043C14.7696 11.5547 14.9679 11.7552 15.1137 12.0059C15.2641 12.252 15.3393 12.5596 15.3393 12.9287C15.3393 13.348 15.2254 13.7262 14.9975 14.0635C14.7696 14.3962 14.4233 14.6582 13.9584 14.8496C13.4936 15.041 12.9057 15.1367 12.1948 15.1367C11.8439 15.1367 11.5112 15.1162 11.1967 15.0752C10.8823 15.0387 10.5974 14.984 10.3422 14.9111C10.087 14.8382 9.86371 14.7516 9.67231 14.6514V13.6191C9.99132 13.7741 10.365 13.9108 10.7934 14.0293C11.2218 14.1478 11.6843 14.207 12.1811 14.207C12.5639 14.207 12.908 14.1637 13.2133 14.0771C13.5187 13.986 13.7602 13.8424 13.9379 13.6465C14.1202 13.446 14.2114 13.1839 14.2114 12.8604C14.2114 12.5641 14.1316 12.3203 13.9721 12.1289C13.8126 11.9329 13.5733 11.7894 13.2543 11.6982C12.9399 11.6025 12.5411 11.5547 12.058 11.5547H11.0532V10.625H11.8803C12.5229 10.625 13.0356 10.5339 13.4184 10.3516C13.8012 10.1693 13.9926 9.86165 13.9926 9.42871C13.9926 9.05501 13.8445 8.77702 13.5483 8.59473C13.2521 8.40788 12.8282 8.31445 12.2768 8.31445C11.8666 8.31445 11.5043 8.35775 11.1899 8.44434C10.8754 8.52637 10.5359 8.64486 10.1713 8.7998L9.76801 7.89062C10.1599 7.71745 10.5701 7.58757 10.9985 7.50098C11.4269 7.41439 11.8735 7.37109 12.3383 7.37109ZM18.8798 7.50781V10.6523H23.0565V7.50781H24.1913V15H23.0565V11.6162H18.8798V15H17.7382V7.50781H18.8798ZM29.9603 7.38477C30.8535 7.38477 31.5166 7.58529 31.9495 7.98633C32.3825 8.38737 32.5989 9.02767 32.5989 9.90723V15H31.7718L31.553 13.8926H31.4984C31.2887 14.166 31.07 14.3962 30.8421 14.583C30.6142 14.7653 30.3499 14.9043 30.0491 15C29.7529 15.0911 29.3883 15.1367 28.9554 15.1367C28.4997 15.1367 28.0941 15.057 27.7386 14.8975C27.3877 14.738 27.1097 14.4964 26.9046 14.1729C26.7041 13.8493 26.6038 13.4391 26.6038 12.9424C26.6038 12.195 26.9001 11.6208 27.4925 11.2197C28.0849 10.8187 28.9873 10.5999 30.1995 10.5635L31.4915 10.5088V10.0508C31.4915 9.40365 31.3525 8.9502 31.0745 8.69043C30.7965 8.43066 30.4046 8.30078 29.8988 8.30078C29.5068 8.30078 29.1331 8.35775 28.7777 8.47168C28.4222 8.58561 28.0849 8.72005 27.7659 8.875L27.4173 8.01367C27.7545 7.84049 28.1419 7.69238 28.5794 7.56934C29.0169 7.44629 29.4772 7.38477 29.9603 7.38477ZM31.4779 11.3086L30.3363 11.3564C29.402 11.3929 28.7435 11.5456 28.3607 11.8145C27.9779 12.0833 27.7864 12.4639 27.7864 12.9561C27.7864 13.3844 27.9163 13.7012 28.1761 13.9062C28.4359 14.1113 28.7799 14.2139 29.2083 14.2139C29.8737 14.2139 30.4183 14.0293 30.8421 13.6602C31.2659 13.291 31.4779 12.7373 31.4779 11.999V11.3086ZM36.5769 7.50781V12.2178C36.5769 12.3089 36.5746 12.4274 36.5701 12.5732C36.5655 12.7145 36.5587 12.8672 36.5496 13.0312C36.5405 13.1908 36.5313 13.3457 36.5222 13.4961C36.5177 13.6419 36.5108 13.7627 36.5017 13.8584L40.5896 7.50781H41.9841V15H40.9246V10.4062C40.9246 10.2604 40.9269 10.0736 40.9314 9.8457C40.936 9.61784 40.9428 9.39453 40.9519 9.17578C40.961 8.95247 40.9679 8.7793 40.9724 8.65625L36.8982 15H35.4968V7.50781H36.5769ZM41.4236 4.4248C41.3826 4.88509 41.2664 5.27018 41.075 5.58008C40.8881 5.88997 40.6124 6.12467 40.2478 6.28418C39.8832 6.43913 39.4161 6.5166 38.8464 6.5166C38.2586 6.5166 37.7846 6.44141 37.4246 6.29102C37.0691 6.13607 36.8048 5.90365 36.6316 5.59375C36.463 5.28385 36.3627 4.89421 36.3308 4.4248H37.3972C37.4474 4.92611 37.5818 5.2679 37.8005 5.4502C38.0193 5.63249 38.3748 5.72363 38.867 5.72363C39.3045 5.72363 39.6485 5.62793 39.8992 5.43652C40.1498 5.24512 40.3002 4.90788 40.3504 4.4248H41.4236ZM46.2561 13.373L46.3449 13.5303C46.2629 13.863 46.1581 14.2184 46.0305 14.5967C45.9074 14.9749 45.7707 15.3532 45.6203 15.7314C45.4745 16.1143 45.3264 16.472 45.176 16.8047H44.3283C44.424 16.4401 44.5174 16.055 44.6086 15.6494C44.6997 15.2484 44.7818 14.8519 44.8547 14.46C44.9322 14.0635 44.9937 13.7012 45.0393 13.373H46.2561ZM54.3282 7.50781V10.2012C54.3282 10.6706 54.4558 11.0169 54.711 11.2402C54.9708 11.4635 55.3468 11.5752 55.8389 11.5752C56.3129 11.5752 56.7436 11.5023 57.1309 11.3564C57.5183 11.2106 57.9102 11.0124 58.3067 10.7617V7.50781H59.4415V15H58.3067V11.6436C57.8874 11.9124 57.475 12.1243 57.0694 12.2793C56.6638 12.4342 56.1785 12.5117 55.6134 12.5117C54.8432 12.5117 54.2462 12.3112 53.8223 11.9102C53.4031 11.5091 53.1934 10.9668 53.1934 10.2832V7.50781H54.3282ZM67.5073 8.47168H65.0396V15H63.9185V8.47168H61.4849V7.50781H67.5073V8.47168ZM76.0107 11.2402C76.0107 11.8555 75.931 12.4046 75.7714 12.8877C75.6119 13.3708 75.3818 13.7786 75.081 14.1113C74.7802 14.444 74.4157 14.6992 73.9873 14.877C73.5634 15.0501 73.0826 15.1367 72.5449 15.1367C72.0436 15.1367 71.5833 15.0501 71.164 14.877C70.7493 14.6992 70.3893 14.444 70.0839 14.1113C69.7832 13.7786 69.5485 13.3708 69.3798 12.8877C69.2158 12.4046 69.1338 11.8555 69.1338 11.2402C69.1338 10.4199 69.2727 9.72266 69.5507 9.14844C69.8287 8.56966 70.2252 8.12988 70.7402 7.8291C71.2597 7.52376 71.8772 7.37109 72.5927 7.37109C73.2763 7.37109 73.8733 7.52376 74.3838 7.8291C74.8987 8.13444 75.2975 8.5765 75.58 9.15527C75.8671 9.72949 76.0107 10.4245 76.0107 11.2402ZM70.3095 11.2402C70.3095 11.8418 70.3893 12.3636 70.5488 12.8057C70.7083 13.2477 70.9544 13.5895 71.2871 13.8311C71.6198 14.0726 72.0481 14.1934 72.5722 14.1934C73.0918 14.1934 73.5179 14.0726 73.8505 13.8311C74.1878 13.5895 74.4362 13.2477 74.5957 12.8057C74.7552 12.3636 74.8349 11.8418 74.8349 11.2402C74.8349 10.6432 74.7552 10.1283 74.5957 9.69531C74.4362 9.25781 74.1901 8.92057 73.8574 8.68359C73.5247 8.44661 73.094 8.32812 72.5654 8.32812C71.7861 8.32812 71.2142 8.58561 70.8496 9.10059C70.4895 9.61556 70.3095 10.3288 70.3095 11.2402ZM83.8709 7.50781V10.6523H88.0477V7.50781H89.1825V15H88.0477V11.6162H83.8709V15H82.7293V7.50781H83.8709ZM94.9514 7.38477C95.8447 7.38477 96.5078 7.58529 96.9407 7.98633C97.3736 8.38737 97.5901 9.02767 97.5901 9.90723V15H96.763L96.5442 13.8926H96.4895C96.2799 14.166 96.0611 14.3962 95.8333 14.583C95.6054 14.7653 95.3411 14.9043 95.0403 15C94.7441 15.0911 94.3795 15.1367 93.9466 15.1367C93.4908 15.1367 93.0852 15.057 92.7298 14.8975C92.3789 14.738 92.1009 14.4964 91.8958 14.1729C91.6953 13.8493 91.595 13.4391 91.595 12.9424C91.595 12.195 91.8912 11.6208 92.4837 11.2197C93.0761 10.8187 93.9785 10.5999 95.1907 10.5635L96.4827 10.5088V10.0508C96.4827 9.40365 96.3437 8.9502 96.0657 8.69043C95.7877 8.43066 95.3958 8.30078 94.8899 8.30078C94.498 8.30078 94.1243 8.35775 93.7688 8.47168C93.4134 8.58561 93.0761 8.72005 92.7571 8.875L92.4085 8.01367C92.7457 7.84049 93.1331 7.69238 93.5706 7.56934C94.0081 7.44629 94.4684 7.38477 94.9514 7.38477ZM96.469 11.3086L95.3274 11.3564C94.3932 11.3929 93.7346 11.5456 93.3518 11.8145C92.969 12.0833 92.7776 12.4639 92.7776 12.9561C92.7776 13.3844 92.9075 13.7012 93.1673 13.9062C93.427 14.1113 93.7711 14.2139 94.1995 14.2139C94.8649 14.2139 95.4095 14.0293 95.8333 13.6602C96.2571 13.291 96.469 12.7373 96.469 11.999V11.3086ZM112.594 7.50781V15H111.569V10.1191C111.569 9.91862 111.573 9.71582 111.582 9.51074C111.596 9.30111 111.612 9.09147 111.63 8.88184H111.589L109.101 15H108.137L105.71 8.88184H105.669C105.683 9.09147 105.692 9.30111 105.696 9.51074C105.706 9.71582 105.71 9.93229 105.71 10.1602V15H104.678V7.50781H106.202L108.622 13.6328L111.076 7.50781H112.594ZM116.654 7.50781V10.6523H120.831V7.50781H121.965V15H120.831V11.6162H116.654V15H115.512V7.50781H116.654ZM127.816 7.37109C128.454 7.37109 129.001 7.51237 129.457 7.79492C129.913 8.07747 130.261 8.47396 130.503 8.98438C130.745 9.49023 130.865 10.0827 130.865 10.7617V11.4658H125.69C125.704 12.3454 125.923 13.0153 126.347 13.4756C126.771 13.9359 127.368 14.166 128.138 14.166C128.612 14.166 129.031 14.1227 129.396 14.0361C129.76 13.9495 130.138 13.8219 130.53 13.6533V14.6514C130.152 14.82 129.776 14.943 129.402 15.0205C129.033 15.098 128.596 15.1367 128.09 15.1367C127.37 15.1367 126.741 14.9909 126.203 14.6992C125.67 14.403 125.255 13.9701 124.959 13.4004C124.663 12.8307 124.515 12.1335 124.515 11.3086C124.515 10.502 124.649 9.80469 124.918 9.2168C125.191 8.62435 125.574 8.16862 126.066 7.84961C126.563 7.5306 127.147 7.37109 127.816 7.37109ZM127.803 8.30078C127.197 8.30078 126.714 8.49902 126.354 8.89551C125.994 9.29199 125.779 9.8457 125.711 10.5566H129.676C129.671 10.11 129.601 9.7181 129.464 9.38086C129.332 9.03906 129.129 8.77474 128.856 8.58789C128.582 8.39648 128.231 8.30078 127.803 8.30078Z" fill="white"/>
</svg>
